<svg width="111" height="33" viewBox="0 0 111 33" fill="none" xmlns="http://www.w3.org/2000/svg">
<g filter="url(#filter0_d_165_139)">
<path d="M30.75 0.734375L25.375 24H19.3438L21.7188 13.7188H12.8906L10.5156 24H4.48438L9.85938 0.734375H15.8906L13.9062 9.29688H22.7344L24.7188 0.734375H30.75ZM51.2344 12.875C51.2344 14.5208 50.9583 16.0625 50.4062 17.5C49.8542 18.9375 49.0781 20.1719 48.0781 21.2031C47.0365 22.276 45.8281 23.1042 44.4531 23.6875C43.0781 24.2604 41.474 24.5469 39.6406 24.5469C37.026 24.5469 35.0208 23.9219 33.625 22.6719C32.2292 21.4219 31.5312 19.6927 31.5312 17.4844C31.5312 15.9219 31.7917 14.4375 32.3125 13.0312C32.8333 11.625 33.6042 10.3854 34.625 9.3125C35.6146 8.26042 36.8281 7.43229 38.2656 6.82812C39.7135 6.21354 41.3333 5.90625 43.125 5.90625C45.75 5.90625 47.7552 6.52604 49.1406 7.76562C50.5365 8.99479 51.2344 10.6979 51.2344 12.875ZM43.9219 18.625C44.401 17.8958 44.7604 17.099 45 16.2344C45.25 15.3698 45.375 14.3177 45.375 13.0781C45.375 12.0052 45.1406 11.1823 44.6719 10.6094C44.2031 10.026 43.4583 9.73438 42.4375 9.73438C41.6458 9.73438 40.9479 9.92708 40.3438 10.3125C39.75 10.6979 39.224 11.2448 38.7656 11.9531C38.3385 12.6094 38 13.4219 37.75 14.3906C37.5104 15.3594 37.3906 16.3542 37.3906 17.375C37.3906 18.5729 37.6562 19.4323 38.1875 19.9531C38.7188 20.4635 39.4479 20.7188 40.375 20.7188C41.0521 20.7188 41.7031 20.5365 42.3281 20.1719C42.9531 19.7969 43.4844 19.2812 43.9219 18.625ZM84.5781 10.3594C84.5781 10.6823 84.5521 11.0312 84.5 11.4062C84.4583 11.7812 84.3906 12.1719 84.2969 12.5781L81.6562 24H75.9688L78 15.2344C78.1354 14.6302 78.2552 14.0521 78.3594 13.5C78.474 12.9479 78.5312 12.5 78.5312 12.1562C78.5312 11.5521 78.3646 11.1094 78.0312 10.8281C77.6979 10.5469 77.1042 10.4062 76.25 10.4062C75.8438 10.4062 75.3802 10.5052 74.8594 10.7031C74.349 10.8906 73.7292 11.1771 73 11.5625L70.125 24H64.4375L66.4688 15.2344C66.5833 14.724 66.6979 14.1719 66.8125 13.5781C66.9271 12.9844 66.9844 12.5312 66.9844 12.2188C66.9844 11.5833 66.8229 11.125 66.5 10.8438C66.1875 10.5521 65.599 10.4062 64.7344 10.4062C64.2865 10.4062 63.7969 10.5104 63.2656 10.7188C62.7344 10.9271 62.1354 11.2083 61.4688 11.5625L58.5938 24H52.9375L57 6.45312H62.6562L62.2031 8.39062C63.349 7.63021 64.3802 7.03646 65.2969 6.60938C66.224 6.18229 67.224 5.96875 68.2969 5.96875C69.4531 5.96875 70.4271 6.22917 71.2188 6.75C72.0104 7.26042 72.5625 8.01562 72.875 9.01562C74.2708 8.00521 75.5208 7.24479 76.625 6.73438C77.7292 6.22396 78.7969 5.96875 79.8281 5.96875C81.3698 5.96875 82.5469 6.34896 83.3594 7.10938C84.1719 7.86979 84.5781 8.95312 84.5781 10.3594ZM101.016 12.9688C101.047 12.7812 101.068 12.6094 101.078 12.4531C101.099 12.2969 101.109 12.1354 101.109 11.9688C101.109 11.1458 100.854 10.5156 100.344 10.0781C99.8333 9.64062 99.099 9.42188 98.1406 9.42188C96.9844 9.42188 96.0104 9.73438 95.2188 10.3594C94.4375 10.9844 93.8438 11.8542 93.4375 12.9688H101.016ZM96.7188 24.4688C93.7292 24.4688 91.4219 23.8073 89.7969 22.4844C88.1719 21.1615 87.3594 19.3333 87.3594 17C87.3594 15.4062 87.625 13.9427 88.1562 12.6094C88.6875 11.276 89.4531 10.1042 90.4531 9.09375C91.4115 8.11458 92.6094 7.33854 94.0469 6.76562C95.4844 6.19271 97.0625 5.90625 98.7812 5.90625C101.396 5.90625 103.365 6.4375 104.688 7.5C106.021 8.55208 106.688 10.1094 106.688 12.1719C106.688 12.8802 106.615 13.5729 106.469 14.25C106.333 14.9271 106.151 15.599 105.922 16.2656H92.8906C92.8906 16.3281 92.8906 16.3906 92.8906 16.4531C92.8906 16.5052 92.8906 16.5625 92.8906 16.625C92.8906 17.8438 93.3177 18.7969 94.1719 19.4844C95.026 20.1719 96.3333 20.5156 98.0938 20.5156C99.3229 20.5156 100.484 20.3073 101.578 19.8906C102.682 19.474 103.641 19.0104 104.453 18.5H105.078L104.031 23.0156C102.938 23.4948 101.786 23.8542 100.578 24.0938C99.3698 24.3438 98.0833 24.4688 96.7188 24.4688Z" fill="url(#paint0_linear_165_139)"/>
</g>
<defs>
<filter id="filter0_d_165_139" x="0.484375" y="0.734375" width="110.203" height="31.8125" filterUnits="userSpaceOnUse" color-interpolation-filters="sRGB">
<feFlood flood-opacity="0" result="BackgroundImageFix"/>
<feColorMatrix in="SourceAlpha" type="matrix" values="0 0 0 0 0 0 0 0 0 0 0 0 0 0 0 0 0 0 127 0" result="hardAlpha"/>
<feOffset dy="4"/>
<feGaussianBlur stdDeviation="2"/>
<feComposite in2="hardAlpha" operator="out"/>
<feColorMatrix type="matrix" values="0 0 0 0 0 0 0 0 0 0 0 0 0 0 0 0 0 0 0.25 0"/>
<feBlend mode="normal" in2="BackgroundImageFix" result="effect1_dropShadow_165_139"/>
<feBlend mode="normal" in="SourceGraphic" in2="effect1_dropShadow_165_139" result="shape"/>
</filter>
<linearGradient id="paint0_linear_165_139" x1="-39" y1="28" x2="150" y2="28" gradientUnits="userSpaceOnUse">
<stop offset="0.108696" stop-color="#E6042F"/>
<stop offset="0.555" stop-color="#F16E1A"/>
<stop offset="0.91" stop-color="#FFF200"/>
</linearGradient>
</defs>
</svg>
