<svg width="97" height="32" viewBox="0 0 97 32" fill="none" xmlns="http://www.w3.org/2000/svg">
<path d="M16.9844 25H0.1875L5.5625 1.73438H11.5938L7.26562 20.5H18.0312L16.9844 25ZM40.5312 13.875C40.5312 15.5208 40.2552 17.0625 39.7031 18.5C39.151 19.9375 38.375 21.1719 37.375 22.2031C36.3333 23.276 35.125 24.1042 33.75 24.6875C32.375 25.2604 30.7708 25.5469 28.9375 25.5469C26.3229 25.5469 24.3177 24.9219 22.9219 23.6719C21.526 22.4219 20.8281 20.6927 20.8281 18.4844C20.8281 16.9219 21.0885 15.4375 21.6094 14.0312C22.1302 12.625 22.901 11.3854 23.9219 10.3125C24.9115 9.26042 26.125 8.43229 27.5625 7.82812C29.0104 7.21354 30.6302 6.90625 32.4219 6.90625C35.0469 6.90625 37.0521 7.52604 38.4375 8.76562C39.8333 9.99479 40.5312 11.6979 40.5312 13.875ZM33.2188 19.625C33.6979 18.8958 34.0573 18.099 34.2969 17.2344C34.5469 16.3698 34.6719 15.3177 34.6719 14.0781C34.6719 13.0052 34.4375 12.1823 33.9688 11.6094C33.5 11.026 32.7552 10.7344 31.7344 10.7344C30.9427 10.7344 30.2448 10.9271 29.6406 11.3125C29.0469 11.6979 28.5208 12.2448 28.0625 12.9531C27.6354 13.6094 27.2969 14.4219 27.0469 15.3906C26.8073 16.3594 26.6875 17.3542 26.6875 18.375C26.6875 19.5729 26.9531 20.4323 27.4844 20.9531C28.0156 21.4635 28.7448 21.7188 29.6719 21.7188C30.349 21.7188 31 21.5365 31.625 21.1719C32.25 20.7969 32.7812 20.2812 33.2188 19.625ZM63.375 7.45312L59.8438 22.9844C59.4583 24.651 58.9115 26.0365 58.2031 27.1406C57.4948 28.2448 56.6354 29.125 55.625 29.7812C54.5833 30.4583 53.4531 30.9323 52.2344 31.2031C51.0156 31.474 49.6458 31.6094 48.125 31.6094C46.8646 31.6094 45.6562 31.5312 44.5 31.375C43.3438 31.2292 42.3698 31.0573 41.5781 30.8594L42.4375 26.5469H43.125C43.9896 26.8802 44.8646 27.1458 45.75 27.3438C46.6354 27.5417 47.4219 27.6406 48.1094 27.6406C49.099 27.6406 49.9583 27.5469 50.6875 27.3594C51.4167 27.1823 51.9896 26.9219 52.4062 26.5781C52.8542 26.2135 53.2083 25.7656 53.4688 25.2344C53.7396 24.7031 53.9583 24.0521 54.125 23.2812L54.2031 22.9531C53.3906 23.5052 52.5833 23.9427 51.7812 24.2656C50.9792 24.5885 50.0729 24.75 49.0625 24.75C47.0938 24.75 45.5521 24.2552 44.4375 23.2656C43.3333 22.276 42.7812 20.7812 42.7812 18.7812C42.7812 15.3333 43.7552 12.5052 45.7031 10.2969C47.651 8.07812 50.0156 6.96875 52.7969 6.96875C53.7969 6.96875 54.7031 7.08854 55.5156 7.32812C56.3385 7.56771 57 7.86979 57.5 8.23438L57.8906 7.45312H63.375ZM56.7812 11.5156C56.4792 11.3802 56.0781 11.2552 55.5781 11.1406C55.0885 11.0156 54.6562 10.9531 54.2812 10.9531C52.6042 10.9531 51.2552 11.5833 50.2344 12.8438C49.2135 14.1042 48.7031 15.724 48.7031 17.7031C48.7031 18.599 48.9219 19.2969 49.3594 19.7969C49.7969 20.2969 50.5833 20.5469 51.7188 20.5469C52.2708 20.5469 52.8281 20.4427 53.3906 20.2344C53.9635 20.0156 54.5 19.7604 55 19.4688L56.7812 11.5156ZM74.3281 7.45312L70.2656 25H64.6094L68.6719 7.45312H74.3281ZM76.0469 0.6875L75.0625 4.95312H69.0938L70.0781 0.6875H76.0469ZM96.0938 11.4219C96.0938 11.7344 96.0729 12.0729 96.0312 12.4375C95.9896 12.8021 95.9219 13.1823 95.8281 13.5781L93.2031 25H87.5156L89.5156 16.2969C89.6615 15.651 89.776 15.099 89.8594 14.6406C89.9427 14.1823 89.9844 13.7552 89.9844 13.3594C89.9844 12.6823 89.8125 12.1875 89.4688 11.875C89.125 11.5625 88.4948 11.4062 87.5781 11.4062C87.1302 11.4062 86.6146 11.5052 86.0312 11.7031C85.4479 11.8906 84.7917 12.1771 84.0625 12.5625L81.2031 25H75.5469L79.5938 7.45312H85.25L84.7969 9.39062C85.9531 8.63021 87.0052 8.03646 87.9531 7.60938C88.9115 7.18229 89.9635 6.96875 91.1094 6.96875C92.6823 6.96875 93.9062 7.34896 94.7812 8.10938C95.6562 8.86979 96.0938 9.97396 96.0938 11.4219Z" fill="url(#paint0_linear_165_140)"/>
<defs>
<linearGradient id="paint0_linear_165_140" x1="-46" y1="29" x2="143" y2="29" gradientUnits="userSpaceOnUse">
<stop offset="0.108696" stop-color="#E6042F"/>
<stop offset="0.555" stop-color="#F16E1A"/>
<stop offset="0.91" stop-color="#FFF200"/>
</linearGradient>
</defs>
</svg>
