<svg width="245" height="32" viewBox="0 0 245 32" fill="none" xmlns="http://www.w3.org/2000/svg">
<path d="M10.3281 25.4219C8.33854 25.4219 6.5625 25.25 5 24.9062C3.44792 24.5625 2.10417 24.1354 0.96875 23.625L2.17188 18.0469H2.82812C3.90104 19.026 5.16146 19.7865 6.60938 20.3281C8.05729 20.8594 9.61458 21.125 11.2812 21.125C12.9896 21.125 14.2448 20.8958 15.0469 20.4375C15.849 19.9688 16.25 19.3021 16.25 18.4375C16.25 18.1146 16.1823 17.8385 16.0469 17.6094C15.9219 17.3698 15.6719 17.1354 15.2969 16.9062C14.9219 16.6771 14.4062 16.4531 13.75 16.2344C13.1042 16.0052 12.2656 15.7448 11.2344 15.4531C10.099 15.1406 9.07812 14.8021 8.17188 14.4375C7.27604 14.0729 6.51042 13.6406 5.875 13.1406C5.23958 12.6302 4.75521 12.0417 4.42188 11.375C4.09896 10.7083 3.9375 9.91146 3.9375 8.98438C3.9375 6.65104 4.96354 4.79167 7.01562 3.40625C9.07812 2.01042 11.8958 1.3125 15.4688 1.3125C17.1875 1.3125 18.8073 1.45312 20.3281 1.73438C21.8594 2.01562 23.1562 2.39583 24.2188 2.875L23.0781 8.23438H22.4375C21.625 7.48438 20.5521 6.85938 19.2188 6.35938C17.8958 5.84896 16.4479 5.59375 14.875 5.59375C13.3333 5.59375 12.1406 5.81771 11.2969 6.26562C10.4531 6.71354 10.0312 7.33333 10.0312 8.125C10.0312 8.48958 10.0938 8.79167 10.2188 9.03125C10.3438 9.27083 10.599 9.50521 10.9844 9.73438C11.3177 9.94271 11.8438 10.1719 12.5625 10.4219C13.2812 10.6615 14.125 10.9115 15.0938 11.1719C17.6979 11.8698 19.5573 12.6875 20.6719 13.625C21.7865 14.5625 22.3438 15.8333 22.3438 17.4375C22.3438 18.7812 22.0417 19.9635 21.4375 20.9844C20.8333 22.0052 20 22.8333 18.9375 23.4688C17.8229 24.1458 16.5573 24.6406 15.1406 24.9531C13.724 25.2656 12.1198 25.4219 10.3281 25.4219ZM45.7969 7.45312L41.7344 25H36.0781L36.5312 23.0625C35.9688 23.4271 35.4167 23.7708 34.875 24.0938C34.3438 24.4062 33.8385 24.6562 33.3594 24.8438C32.7552 25.0938 32.2031 25.2604 31.7031 25.3438C31.2031 25.4375 30.7083 25.4844 30.2188 25.4844C28.6771 25.4844 27.4583 25.1146 26.5625 24.375C25.6771 23.6354 25.2344 22.5417 25.2344 21.0938C25.2344 20.6979 25.2552 20.3333 25.2969 20C25.3385 19.6562 25.4062 19.2812 25.5 18.875L28.1406 7.45312H33.8281L31.8125 16.1562C31.6562 16.8229 31.5365 17.3958 31.4531 17.875C31.3802 18.3542 31.3438 18.7604 31.3438 19.0938C31.3438 19.7812 31.5104 20.2812 31.8438 20.5938C32.1771 20.8958 32.8073 21.0469 33.7344 21.0469C34.1927 21.0469 34.7188 20.9479 35.3125 20.75C35.9167 20.5521 36.5677 20.2656 37.2656 19.8906L40.1406 7.45312H45.7969ZM67.7812 13.0625C67.7812 14.6562 67.5208 16.2031 67 17.7031C66.4896 19.2031 65.7865 20.5104 64.8906 21.625C63.974 22.7604 62.901 23.6667 61.6719 24.3438C60.4427 25.0104 59.0833 25.3438 57.5938 25.3438C56.6146 25.3438 55.7344 25.2448 54.9531 25.0469C54.1823 24.849 53.4948 24.5417 52.8906 24.125L52.4688 25H47.0469L52.6562 0.6875H58.3125L56.3281 9.28125C57.3385 8.58333 58.2969 8.02604 59.2031 7.60938C60.1198 7.18229 61.1406 6.96875 62.2656 6.96875C64.0781 6.96875 65.4479 7.51042 66.375 8.59375C67.3125 9.66667 67.7812 11.1562 67.7812 13.0625ZM61.8281 14.1094C61.8281 13.1302 61.6146 12.3854 61.1875 11.875C60.7604 11.3646 60.0208 11.1094 58.9688 11.1094C58.4167 11.1094 57.875 11.2083 57.3438 11.4062C56.8125 11.5938 56.25 11.8438 55.6562 12.1562L53.625 20.9688C53.9896 21.1146 54.375 21.2344 54.7812 21.3281C55.1875 21.4115 55.6458 21.4531 56.1562 21.4531C57.8958 21.4531 59.276 20.7708 60.2969 19.4062C61.3177 18.0312 61.8281 16.2656 61.8281 14.1094ZM76.1875 25.4844C74.6875 25.4844 73.2344 25.3438 71.8281 25.0625C70.4219 24.7812 69.3438 24.4531 68.5938 24.0781L69.6719 19.4531H70.1875C70.4167 19.651 70.7031 19.8698 71.0469 20.1094C71.401 20.349 71.901 20.599 72.5469 20.8594C73.099 21.099 73.7396 21.3073 74.4688 21.4844C75.1979 21.651 75.9844 21.7344 76.8281 21.7344C78.0885 21.7344 79.0312 21.5885 79.6562 21.2969C80.2917 21.0052 80.6094 20.5885 80.6094 20.0469C80.6094 19.6302 80.3854 19.3125 79.9375 19.0938C79.4896 18.875 78.5625 18.6042 77.1562 18.2812C74.7708 17.7292 73.1354 17.0625 72.25 16.2812C71.375 15.5 70.9375 14.526 70.9375 13.3594C70.9375 11.3802 71.8229 9.82292 73.5938 8.6875C75.3646 7.54167 77.7604 6.96875 80.7812 6.96875C82.0938 6.96875 83.4062 7.10417 84.7188 7.375C86.0312 7.63542 86.9948 7.91667 87.6094 8.21875L86.5781 12.6562H86.0938C85.3542 12.0833 84.4583 11.6198 83.4062 11.2656C82.3646 10.901 81.2917 10.7188 80.1875 10.7188C78.9896 10.7188 78.0677 10.8646 77.4219 11.1562C76.7865 11.4375 76.4688 11.875 76.4688 12.4688C76.4688 12.9271 76.7448 13.2812 77.2969 13.5312C77.849 13.7708 78.7188 14.0208 79.9062 14.2812C82.1146 14.7604 83.7031 15.3646 84.6719 16.0938C85.651 16.8229 86.1406 17.8438 86.1406 19.1562C86.1406 21.1146 85.2448 22.6615 83.4531 23.7969C81.6615 24.9219 79.2396 25.4844 76.1875 25.4844ZM97.4844 25.4688C96.2865 25.4688 95.1615 25.3177 94.1094 25.0156C93.0677 24.724 92.1562 24.2656 91.375 23.6406C90.6146 23.026 90.0208 22.2552 89.5938 21.3281C89.1667 20.401 88.9531 19.3281 88.9531 18.1094C88.9531 16.5365 89.25 15.0781 89.8438 13.7344C90.4479 12.3802 91.2917 11.1979 92.375 10.1875C93.4375 9.19792 94.7344 8.41667 96.2656 7.84375C97.7969 7.26042 99.4531 6.96875 101.234 6.96875C102.307 6.96875 103.37 7.08854 104.422 7.32812C105.484 7.56771 106.469 7.91667 107.375 8.375L106.188 13.1719H105.391C104.776 12.4323 104.078 11.8854 103.297 11.5312C102.526 11.1667 101.656 10.9844 100.688 10.9844C98.9167 10.9844 97.4948 11.6146 96.4219 12.875C95.349 14.125 94.8125 15.6875 94.8125 17.5625C94.8125 18.8646 95.1406 19.8385 95.7969 20.4844C96.4635 21.1302 97.4948 21.4531 98.8906 21.4531C99.974 21.4531 100.958 21.2344 101.844 20.7969C102.74 20.349 103.505 19.8542 104.141 19.3125H104.938L103.75 24.1094C102.625 24.599 101.635 24.9479 100.781 25.1562C99.9375 25.3646 98.8385 25.4688 97.4844 25.4688ZM122.828 12.8125H122.328C122.078 12.7292 121.724 12.6667 121.266 12.625C120.807 12.5833 120.354 12.5625 119.906 12.5625C119.167 12.5625 118.453 12.6198 117.766 12.7344C117.078 12.8385 116.37 13.0104 115.641 13.25L112.922 25H107.266L111.328 7.45312H116.984L116.391 10.0312C117.453 9.25 118.51 8.61458 119.562 8.125C120.625 7.63542 121.693 7.39062 122.766 7.39062C122.964 7.39062 123.182 7.39583 123.422 7.40625C123.672 7.41667 123.891 7.43229 124.078 7.45312L122.828 12.8125ZM132.891 7.45312L128.828 25H123.172L127.234 7.45312H132.891ZM134.609 0.6875L133.625 4.95312H127.656L128.641 0.6875H134.609ZM154.828 13.0625C154.828 14.6771 154.562 16.2448 154.031 17.7656C153.51 19.276 152.797 20.5781 151.891 21.6719C150.943 22.8281 149.87 23.7292 148.672 24.375C147.484 25.0208 146.151 25.3438 144.672 25.3438C143.734 25.3438 142.87 25.2344 142.078 25.0156C141.297 24.8073 140.589 24.5104 139.953 24.125L138.266 31.4375H132.609L138.156 7.45312H143.812L143.391 9.28125C144.453 8.55208 145.432 7.98438 146.328 7.57812C147.234 7.17188 148.234 6.96875 149.328 6.96875C151.099 6.96875 152.458 7.51042 153.406 8.59375C154.354 9.66667 154.828 11.1562 154.828 13.0625ZM147.5 19.2188C147.948 18.5625 148.292 17.7969 148.531 16.9219C148.771 16.0365 148.891 15.0781 148.891 14.0469C148.891 13.099 148.682 12.375 148.266 11.875C147.849 11.3646 147.104 11.1094 146.031 11.1094C145.479 11.1094 144.938 11.2083 144.406 11.4062C143.875 11.5938 143.312 11.8438 142.719 12.1562L140.688 20.9844C141.021 21.1302 141.406 21.2448 141.844 21.3281C142.292 21.401 142.75 21.4375 143.219 21.4375C144.167 21.4375 145.005 21.2344 145.734 20.8281C146.464 20.4219 147.052 19.8854 147.5 19.2188ZM163.219 25.3438C161.271 25.3438 159.88 25.026 159.047 24.3906C158.214 23.7448 157.797 22.7917 157.797 21.5312C157.797 21.1979 157.823 20.875 157.875 20.5625C157.927 20.25 157.995 19.8854 158.078 19.4688L159.984 11.1562H157.672L158.531 7.45312H160.844L162 2.4375H167.641L166.484 7.45312H171.766L170.906 11.1562H165.625L164.172 17.4844C164.068 17.9219 163.969 18.3646 163.875 18.8125C163.781 19.25 163.734 19.625 163.734 19.9375C163.734 20.5625 163.906 21 164.25 21.25C164.604 21.4896 165.146 21.6094 165.875 21.6094C166.167 21.6094 166.547 21.5573 167.016 21.4531C167.495 21.3385 167.875 21.2135 168.156 21.0781H168.625L167.75 24.8438C167.115 25 166.443 25.1198 165.734 25.2031C165.036 25.2969 164.198 25.3438 163.219 25.3438ZM180.797 7.45312L176.734 25H171.078L175.141 7.45312H180.797ZM182.516 0.6875L181.531 4.95312H175.562L176.547 0.6875H182.516ZM202.25 13.875C202.25 15.5208 201.974 17.0625 201.422 18.5C200.87 19.9375 200.094 21.1719 199.094 22.2031C198.052 23.276 196.844 24.1042 195.469 24.6875C194.094 25.2604 192.49 25.5469 190.656 25.5469C188.042 25.5469 186.036 24.9219 184.641 23.6719C183.245 22.4219 182.547 20.6927 182.547 18.4844C182.547 16.9219 182.807 15.4375 183.328 14.0312C183.849 12.625 184.62 11.3854 185.641 10.3125C186.63 9.26042 187.844 8.43229 189.281 7.82812C190.729 7.21354 192.349 6.90625 194.141 6.90625C196.766 6.90625 198.771 7.52604 200.156 8.76562C201.552 9.99479 202.25 11.6979 202.25 13.875ZM194.938 19.625C195.417 18.8958 195.776 18.099 196.016 17.2344C196.266 16.3698 196.391 15.3177 196.391 14.0781C196.391 13.0052 196.156 12.1823 195.688 11.6094C195.219 11.026 194.474 10.7344 193.453 10.7344C192.661 10.7344 191.964 10.9271 191.359 11.3125C190.766 11.6979 190.24 12.2448 189.781 12.9531C189.354 13.6094 189.016 14.4219 188.766 15.3906C188.526 16.3594 188.406 17.3542 188.406 18.375C188.406 19.5729 188.672 20.4323 189.203 20.9531C189.734 21.4635 190.464 21.7188 191.391 21.7188C192.068 21.7188 192.719 21.5365 193.344 21.1719C193.969 20.7969 194.5 20.2812 194.938 19.625ZM224.5 11.4219C224.5 11.7344 224.479 12.0729 224.438 12.4375C224.396 12.8021 224.328 13.1823 224.234 13.5781L221.609 25H215.922L217.922 16.2969C218.068 15.651 218.182 15.099 218.266 14.6406C218.349 14.1823 218.391 13.7552 218.391 13.3594C218.391 12.6823 218.219 12.1875 217.875 11.875C217.531 11.5625 216.901 11.4062 215.984 11.4062C215.536 11.4062 215.021 11.5052 214.438 11.7031C213.854 11.8906 213.198 12.1771 212.469 12.5625L209.609 25H203.953L208 7.45312H213.656L213.203 9.39062C214.359 8.63021 215.411 8.03646 216.359 7.60938C217.318 7.18229 218.37 6.96875 219.516 6.96875C221.089 6.96875 222.312 7.34896 223.188 8.10938C224.062 8.86979 224.5 9.97396 224.5 11.4219ZM233.531 25.4844C232.031 25.4844 230.578 25.3438 229.172 25.0625C227.766 24.7812 226.688 24.4531 225.938 24.0781L227.016 19.4531H227.531C227.76 19.651 228.047 19.8698 228.391 20.1094C228.745 20.349 229.245 20.599 229.891 20.8594C230.443 21.099 231.083 21.3073 231.812 21.4844C232.542 21.651 233.328 21.7344 234.172 21.7344C235.432 21.7344 236.375 21.5885 237 21.2969C237.635 21.0052 237.953 20.5885 237.953 20.0469C237.953 19.6302 237.729 19.3125 237.281 19.0938C236.833 18.875 235.906 18.6042 234.5 18.2812C232.115 17.7292 230.479 17.0625 229.594 16.2812C228.719 15.5 228.281 14.526 228.281 13.3594C228.281 11.3802 229.167 9.82292 230.938 8.6875C232.708 7.54167 235.104 6.96875 238.125 6.96875C239.438 6.96875 240.75 7.10417 242.062 7.375C243.375 7.63542 244.339 7.91667 244.953 8.21875L243.922 12.6562H243.438C242.698 12.0833 241.802 11.6198 240.75 11.2656C239.708 10.901 238.635 10.7188 237.531 10.7188C236.333 10.7188 235.411 10.8646 234.766 11.1562C234.13 11.4375 233.812 11.875 233.812 12.4688C233.812 12.9271 234.089 13.2812 234.641 13.5312C235.193 13.7708 236.062 14.0208 237.25 14.2812C239.458 14.7604 241.047 15.3646 242.016 16.0938C242.995 16.8229 243.484 17.8438 243.484 19.1562C243.484 21.1146 242.589 22.6615 240.797 23.7969C239.005 24.9219 236.583 25.4844 233.531 25.4844Z" fill="url(#paint0_linear_165_142)"/>
<defs>
<linearGradient id="paint0_linear_165_142" x1="-5" y1="37" x2="251" y2="37" gradientUnits="userSpaceOnUse">
<stop offset="0.108696" stop-color="#E6042F"/>
<stop offset="0.555" stop-color="#F16E1A"/>
<stop offset="0.91" stop-color="#FFF200"/>
</linearGradient>
</defs>
</svg>
