<svg width="190" height="70" viewBox="0 0 190 70" fill="none" xmlns="http://www.w3.org/2000/svg">
<path d="M80.6406 0.734375L77.2656 15.2656C76.5052 18.4844 75.2188 20.8229 73.4062 22.2812C71.5938 23.7292 68.9688 24.4531 65.5312 24.4531C62.4688 24.4531 60.151 23.9062 58.5781 22.8125C57.0052 21.7083 56.2188 20.0417 56.2188 17.8125C56.2188 17.3542 56.2552 16.8906 56.3281 16.4219C56.401 15.9531 56.4792 15.526 56.5625 15.1406L59.9062 0.734375H65.9688L62.625 15.1562C62.5521 15.4479 62.4896 15.7708 62.4375 16.125C62.3958 16.4688 62.375 16.7552 62.375 16.9844C62.375 17.9635 62.6667 18.7083 63.25 19.2188C63.8438 19.7188 64.8229 19.9688 66.1875 19.9688C67.5104 19.9688 68.5781 19.6042 69.3906 18.875C70.2135 18.1458 70.8021 17.0104 71.1562 15.4688L74.5781 0.734375H80.6406ZM87.3125 24.4844C85.8125 24.4844 84.3594 24.3438 82.9531 24.0625C81.5469 23.7812 80.4688 23.4531 79.7188 23.0781L80.7969 18.4531H81.3125C81.5417 18.651 81.8281 18.8698 82.1719 19.1094C82.526 19.349 83.026 19.599 83.6719 19.8594C84.224 20.099 84.8646 20.3073 85.5938 20.4844C86.3229 20.651 87.1094 20.7344 87.9531 20.7344C89.2135 20.7344 90.1562 20.5885 90.7812 20.2969C91.4167 20.0052 91.7344 19.5885 91.7344 19.0469C91.7344 18.6302 91.5104 18.3125 91.0625 18.0938C90.6146 17.875 89.6875 17.6042 88.2812 17.2812C85.8958 16.7292 84.2604 16.0625 83.375 15.2812C82.5 14.5 82.0625 13.526 82.0625 12.3594C82.0625 10.3802 82.9479 8.82292 84.7188 7.6875C86.4896 6.54167 88.8854 5.96875 91.9062 5.96875C93.2188 5.96875 94.5312 6.10417 95.8438 6.375C97.1562 6.63542 98.1198 6.91667 98.7344 7.21875L97.7031 11.6562H97.2188C96.4792 11.0833 95.5833 10.6198 94.5312 10.2656C93.4896 9.90104 92.4167 9.71875 91.3125 9.71875C90.1146 9.71875 89.1927 9.86458 88.5469 10.1562C87.9115 10.4375 87.5938 10.875 87.5938 11.4688C87.5938 11.9271 87.8698 12.2812 88.4219 12.5312C88.974 12.7708 89.8438 13.0208 91.0312 13.2812C93.2396 13.7604 94.8281 14.3646 95.7969 15.0938C96.776 15.8229 97.2656 16.8438 97.2656 18.1562C97.2656 20.1146 96.3698 21.6615 94.5781 22.7969C92.7865 23.9219 90.3646 24.4844 87.3125 24.4844ZM113.75 12.9688C113.781 12.7812 113.802 12.6094 113.812 12.4531C113.833 12.2969 113.844 12.1354 113.844 11.9688C113.844 11.1458 113.589 10.5156 113.078 10.0781C112.568 9.64062 111.833 9.42188 110.875 9.42188C109.719 9.42188 108.745 9.73438 107.953 10.3594C107.172 10.9844 106.578 11.8542 106.172 12.9688H113.75ZM109.453 24.4688C106.464 24.4688 104.156 23.8073 102.531 22.4844C100.906 21.1615 100.094 19.3333 100.094 17C100.094 15.4062 100.359 13.9427 100.891 12.6094C101.422 11.276 102.188 10.1042 103.188 9.09375C104.146 8.11458 105.344 7.33854 106.781 6.76562C108.219 6.19271 109.797 5.90625 111.516 5.90625C114.13 5.90625 116.099 6.4375 117.422 7.5C118.755 8.55208 119.422 10.1094 119.422 12.1719C119.422 12.8802 119.349 13.5729 119.203 14.25C119.068 14.9271 118.885 15.599 118.656 16.2656H105.625C105.625 16.3281 105.625 16.3906 105.625 16.4531C105.625 16.5052 105.625 16.5625 105.625 16.625C105.625 17.8438 106.052 18.7969 106.906 19.4844C107.76 20.1719 109.068 20.5156 110.828 20.5156C112.057 20.5156 113.219 20.3073 114.312 19.8906C115.417 19.474 116.375 19.0104 117.188 18.5H117.812L116.766 23.0156C115.672 23.4948 114.521 23.8542 113.312 24.0938C112.104 24.3438 110.818 24.4688 109.453 24.4688ZM136.359 11.8125H135.859C135.609 11.7292 135.255 11.6667 134.797 11.625C134.339 11.5833 133.885 11.5625 133.438 11.5625C132.698 11.5625 131.984 11.6198 131.297 11.7344C130.609 11.8385 129.901 12.0104 129.172 12.25L126.453 24H120.797L124.859 6.45312H130.516L129.922 9.03125C130.984 8.25 132.042 7.61458 133.094 7.125C134.156 6.63542 135.224 6.39062 136.297 6.39062C136.495 6.39062 136.714 6.39583 136.953 6.40625C137.203 6.41667 137.422 6.43229 137.609 6.45312L136.359 11.8125ZM26.5625 39.7344L21.1875 63H15.1562L17.5312 52.7188H8.70312L6.32812 63H0.296875L5.67188 39.7344H11.7031L9.71875 48.2969H18.5469L20.5312 39.7344H26.5625ZM47.0469 51.875C47.0469 53.5208 46.7708 55.0625 46.2188 56.5C45.6667 57.9375 44.8906 59.1719 43.8906 60.2031C42.849 61.276 41.6406 62.1042 40.2656 62.6875C38.8906 63.2604 37.2865 63.5469 35.4531 63.5469C32.8385 63.5469 30.8333 62.9219 29.4375 61.6719C28.0417 60.4219 27.3438 58.6927 27.3438 56.4844C27.3438 54.9219 27.6042 53.4375 28.125 52.0312C28.6458 50.625 29.4167 49.3854 30.4375 48.3125C31.4271 47.2604 32.6406 46.4323 34.0781 45.8281C35.526 45.2135 37.1458 44.9062 38.9375 44.9062C41.5625 44.9062 43.5677 45.526 44.9531 46.7656C46.349 47.9948 47.0469 49.6979 47.0469 51.875ZM39.7344 57.625C40.2135 56.8958 40.5729 56.099 40.8125 55.2344C41.0625 54.3698 41.1875 53.3177 41.1875 52.0781C41.1875 51.0052 40.9531 50.1823 40.4844 49.6094C40.0156 49.026 39.2708 48.7344 38.25 48.7344C37.4583 48.7344 36.7604 48.9271 36.1562 49.3125C35.5625 49.6979 35.0365 50.2448 34.5781 50.9531C34.151 51.6094 33.8125 52.4219 33.5625 53.3906C33.3229 54.3594 33.2031 55.3542 33.2031 56.375C33.2031 57.5729 33.4688 58.4323 34 58.9531C34.5312 59.4635 35.2604 59.7188 36.1875 59.7188C36.8646 59.7188 37.5156 59.5365 38.1406 59.1719C38.7656 58.7969 39.2969 58.2812 39.7344 57.625ZM80.3906 49.3594C80.3906 49.6823 80.3646 50.0312 80.3125 50.4062C80.2708 50.7812 80.2031 51.1719 80.1094 51.5781L77.4688 63H71.7812L73.8125 54.2344C73.9479 53.6302 74.0677 53.0521 74.1719 52.5C74.2865 51.9479 74.3438 51.5 74.3438 51.1562C74.3438 50.5521 74.1771 50.1094 73.8438 49.8281C73.5104 49.5469 72.9167 49.4062 72.0625 49.4062C71.6562 49.4062 71.1927 49.5052 70.6719 49.7031C70.1615 49.8906 69.5417 50.1771 68.8125 50.5625L65.9375 63H60.25L62.2812 54.2344C62.3958 53.724 62.5104 53.1719 62.625 52.5781C62.7396 51.9844 62.7969 51.5312 62.7969 51.2188C62.7969 50.5833 62.6354 50.125 62.3125 49.8438C62 49.5521 61.4115 49.4062 60.5469 49.4062C60.099 49.4062 59.6094 49.5104 59.0781 49.7188C58.5469 49.9271 57.9479 50.2083 57.2812 50.5625L54.4062 63H48.75L52.8125 45.4531H58.4688L58.0156 47.3906C59.1615 46.6302 60.1927 46.0365 61.1094 45.6094C62.0365 45.1823 63.0365 44.9688 64.1094 44.9688C65.2656 44.9688 66.2396 45.2292 67.0312 45.75C67.8229 46.2604 68.375 47.0156 68.6875 48.0156C70.0833 47.0052 71.3333 46.2448 72.4375 45.7344C73.5417 45.224 74.6094 44.9688 75.6406 44.9688C77.1823 44.9688 78.3594 45.349 79.1719 46.1094C79.9844 46.8698 80.3906 47.9531 80.3906 49.3594ZM96.8281 51.9688C96.8594 51.7812 96.8802 51.6094 96.8906 51.4531C96.9115 51.2969 96.9219 51.1354 96.9219 50.9688C96.9219 50.1458 96.6667 49.5156 96.1562 49.0781C95.6458 48.6406 94.9115 48.4219 93.9531 48.4219C92.7969 48.4219 91.8229 48.7344 91.0312 49.3594C90.25 49.9844 89.6562 50.8542 89.25 51.9688H96.8281ZM92.5312 63.4688C89.5417 63.4688 87.2344 62.8073 85.6094 61.4844C83.9844 60.1615 83.1719 58.3333 83.1719 56C83.1719 54.4062 83.4375 52.9427 83.9688 51.6094C84.5 50.276 85.2656 49.1042 86.2656 48.0938C87.224 47.1146 88.4219 46.3385 89.8594 45.7656C91.2969 45.1927 92.875 44.9062 94.5938 44.9062C97.2083 44.9062 99.1771 45.4375 100.5 46.5C101.833 47.5521 102.5 49.1094 102.5 51.1719C102.5 51.8802 102.427 52.5729 102.281 53.25C102.146 53.9271 101.964 54.599 101.734 55.2656H88.7031C88.7031 55.3281 88.7031 55.3906 88.7031 55.4531C88.7031 55.5052 88.7031 55.5625 88.7031 55.625C88.7031 56.8438 89.1302 57.7969 89.9844 58.4844C90.8385 59.1719 92.1458 59.5156 93.9062 59.5156C95.1354 59.5156 96.2969 59.3073 97.3906 58.8906C98.4948 58.474 99.4531 58.0104 100.266 57.5H100.891L99.8438 62.0156C98.75 62.4948 97.599 62.8542 96.3906 63.0938C95.1823 63.3438 93.8958 63.4688 92.5312 63.4688ZM124.594 51.0625C124.594 52.6771 124.328 54.2448 123.797 55.7656C123.276 57.276 122.562 58.5781 121.656 59.6719C120.708 60.8281 119.635 61.7292 118.438 62.375C117.25 63.0208 115.917 63.3438 114.438 63.3438C113.5 63.3438 112.635 63.2344 111.844 63.0156C111.062 62.8073 110.354 62.5104 109.719 62.125L108.031 69.4375H102.375L107.922 45.4531H113.578L113.156 47.2812C114.219 46.5521 115.198 45.9844 116.094 45.5781C117 45.1719 118 44.9688 119.094 44.9688C120.865 44.9688 122.224 45.5104 123.172 46.5938C124.12 47.6667 124.594 49.1562 124.594 51.0625ZM117.266 57.2188C117.714 56.5625 118.057 55.7969 118.297 54.9219C118.536 54.0365 118.656 53.0781 118.656 52.0469C118.656 51.099 118.448 50.375 118.031 49.875C117.615 49.3646 116.87 49.1094 115.797 49.1094C115.245 49.1094 114.703 49.2083 114.172 49.4062C113.641 49.5938 113.078 49.8438 112.484 50.1562L110.453 58.9844C110.786 59.1302 111.172 59.2448 111.609 59.3281C112.057 59.401 112.516 59.4375 112.984 59.4375C113.932 59.4375 114.771 59.2344 115.5 58.8281C116.229 58.4219 116.818 57.8854 117.266 57.2188ZM138.797 54.7188C137.797 54.8021 136.859 54.901 135.984 55.0156C135.109 55.1302 134.365 55.2969 133.75 55.5156C133.115 55.7448 132.63 56.0677 132.297 56.4844C131.964 56.901 131.797 57.4531 131.797 58.1406C131.797 58.7448 132.016 59.1719 132.453 59.4219C132.901 59.6615 133.547 59.7812 134.391 59.7812C134.943 59.7812 135.531 59.6562 136.156 59.4062C136.792 59.1458 137.385 58.8177 137.938 58.4219L138.797 54.7188ZM137.312 61.1406C136.958 61.3698 136.531 61.6458 136.031 61.9688C135.531 62.2917 135.068 62.5469 134.641 62.7344C134.057 62.974 133.51 63.1562 133 63.2812C132.49 63.4062 131.781 63.4688 130.875 63.4688C129.417 63.4688 128.224 63.0625 127.297 62.25C126.38 61.4271 125.922 60.3594 125.922 59.0469C125.922 57.6615 126.25 56.4896 126.906 55.5312C127.562 54.5625 128.536 53.7917 129.828 53.2188C131.036 52.6771 132.474 52.2865 134.141 52.0469C135.818 51.8073 137.63 51.6302 139.578 51.5156C139.589 51.4531 139.609 51.3542 139.641 51.2188C139.672 51.0729 139.688 50.9115 139.688 50.7344C139.688 49.9948 139.344 49.4792 138.656 49.1875C137.969 48.8854 136.943 48.7344 135.578 48.7344C134.651 48.7344 133.625 48.8906 132.5 49.2031C131.385 49.5156 130.547 49.776 129.984 49.9844H129.469L130.297 45.8281C130.953 45.6615 131.969 45.474 133.344 45.2656C134.719 45.0573 136.089 44.9531 137.453 44.9531C140.203 44.9531 142.219 45.3125 143.5 46.0312C144.792 46.75 145.438 47.8646 145.438 49.375C145.438 49.5833 145.417 49.8542 145.375 50.1875C145.344 50.5208 145.297 50.8125 145.234 51.0625L142.484 63H136.891L137.312 61.1406ZM168.766 45.4531L165.234 60.9844C164.849 62.651 164.302 64.0365 163.594 65.1406C162.885 66.2448 162.026 67.125 161.016 67.7812C159.974 68.4583 158.844 68.9323 157.625 69.2031C156.406 69.474 155.036 69.6094 153.516 69.6094C152.255 69.6094 151.047 69.5312 149.891 69.375C148.734 69.2292 147.76 69.0573 146.969 68.8594L147.828 64.5469H148.516C149.38 64.8802 150.255 65.1458 151.141 65.3438C152.026 65.5417 152.812 65.6406 153.5 65.6406C154.49 65.6406 155.349 65.5469 156.078 65.3594C156.807 65.1823 157.38 64.9219 157.797 64.5781C158.245 64.2135 158.599 63.7656 158.859 63.2344C159.13 62.7031 159.349 62.0521 159.516 61.2812L159.594 60.9531C158.781 61.5052 157.974 61.9427 157.172 62.2656C156.37 62.5885 155.464 62.75 154.453 62.75C152.484 62.75 150.943 62.2552 149.828 61.2656C148.724 60.276 148.172 58.7812 148.172 56.7812C148.172 53.3333 149.146 50.5052 151.094 48.2969C153.042 46.0781 155.406 44.9688 158.188 44.9688C159.188 44.9688 160.094 45.0885 160.906 45.3281C161.729 45.5677 162.391 45.8698 162.891 46.2344L163.281 45.4531H168.766ZM162.172 49.5156C161.87 49.3802 161.469 49.2552 160.969 49.1406C160.479 49.0156 160.047 48.9531 159.672 48.9531C157.995 48.9531 156.646 49.5833 155.625 50.8438C154.604 52.1042 154.094 53.724 154.094 55.7031C154.094 56.599 154.312 57.2969 154.75 57.7969C155.188 58.2969 155.974 58.5469 157.109 58.5469C157.661 58.5469 158.219 58.4427 158.781 58.2344C159.354 58.0156 159.891 57.7604 160.391 57.4688L162.172 49.5156ZM184.203 51.9688C184.234 51.7812 184.255 51.6094 184.266 51.4531C184.286 51.2969 184.297 51.1354 184.297 50.9688C184.297 50.1458 184.042 49.5156 183.531 49.0781C183.021 48.6406 182.286 48.4219 181.328 48.4219C180.172 48.4219 179.198 48.7344 178.406 49.3594C177.625 49.9844 177.031 50.8542 176.625 51.9688H184.203ZM179.906 63.4688C176.917 63.4688 174.609 62.8073 172.984 61.4844C171.359 60.1615 170.547 58.3333 170.547 56C170.547 54.4062 170.812 52.9427 171.344 51.6094C171.875 50.276 172.641 49.1042 173.641 48.0938C174.599 47.1146 175.797 46.3385 177.234 45.7656C178.672 45.1927 180.25 44.9062 181.969 44.9062C184.583 44.9062 186.552 45.4375 187.875 46.5C189.208 47.5521 189.875 49.1094 189.875 51.1719C189.875 51.8802 189.802 52.5729 189.656 53.25C189.521 53.9271 189.339 54.599 189.109 55.2656H176.078C176.078 55.3281 176.078 55.3906 176.078 55.4531C176.078 55.5052 176.078 55.5625 176.078 55.625C176.078 56.8438 176.505 57.7969 177.359 58.4844C178.214 59.1719 179.521 59.5156 181.281 59.5156C182.51 59.5156 183.672 59.3073 184.766 58.8906C185.87 58.474 186.828 58.0104 187.641 57.5H188.266L187.219 62.0156C186.125 62.4948 184.974 62.8542 183.766 63.0938C182.557 63.3438 181.271 63.4688 179.906 63.4688Z" fill="url(#paint0_linear_165_141)"/>
<defs>
<linearGradient id="paint0_linear_165_141" x1="-6" y1="47" x2="196" y2="47" gradientUnits="userSpaceOnUse">
<stop offset="0.108696" stop-color="#E6042F"/>
<stop offset="0.555" stop-color="#F16E1A"/>
<stop offset="0.91" stop-color="#FFF200"/>
</linearGradient>
</defs>
</svg>
